<?xml version="1.0" encoding="UTF-8" standalone="no"?>
<!-- Created with Inkscape (http://www.inkscape.org/) -->

<svg
   xmlns:dc="http://purl.org/dc/elements/1.1/"
   xmlns:cc="http://creativecommons.org/ns#"
   xmlns:rdf="http://www.w3.org/1999/02/22-rdf-syntax-ns#"
   xmlns:svg="http://www.w3.org/2000/svg"
   xmlns="http://www.w3.org/2000/svg"
   xmlns:sodipodi="http://sodipodi.sourceforge.net/DTD/sodipodi-0.dtd"
   xmlns:inkscape="http://www.inkscape.org/namespaces/inkscape"
   id="svg2"
   version="1.1"
   inkscape:version="0.91 r13725"
   xml:space="preserve"
   width="591.76874"
   height="214.92125"
   viewBox="0 0 591.76874 214.92125"
   sodipodi:docname="COH_PublicLibrary_Horizontal_Logo_Black.svg"><metadata
     id="metadata8"><rdf:RDF><cc:Work
         rdf:about=""><dc:format>image/svg+xml</dc:format><dc:type
           rdf:resource="http://purl.org/dc/dcmitype/StillImage" /><dc:title></dc:title></cc:Work></rdf:RDF></metadata><defs
     id="defs6"><clipPath
       clipPathUnits="userSpaceOnUse"
       id="clipPath26"><path
         d="m 0,171.937 473.415,0 L 473.415,0 0,0 0,171.937 Z"
         id="path28"
         inkscape:connector-curvature="0" /></clipPath></defs><sodipodi:namedview
     pagecolor="#ffffff"
     bordercolor="#666666"
     borderopacity="1"
     objecttolerance="10"
     gridtolerance="10"
     guidetolerance="10"
     inkscape:pageopacity="0"
     inkscape:pageshadow="2"
     inkscape:window-width="681"
     inkscape:window-height="480"
     id="namedview4"
     showgrid="false"
     showborder="true"
     inkscape:zoom="0.85844346"
     inkscape:cx="295.88437"
     inkscape:cy="107.46062"
     inkscape:window-x="1018"
     inkscape:window-y="172"
     inkscape:window-maximized="0"
     inkscape:current-layer="g10" /><g
     id="g10"
     inkscape:groupmode="layer"
     inkscape:label="COH_PublicLibrary_Horizontal_Logo_Black"
     transform="matrix(1.25,0,0,-1.25,0,214.92125)"><g
       id="g12"
       transform="translate(149.9365,125.1956)"
       style="fill:#ffffff"><path
         d="m 0,0 9.673,0 0,-25.326 25.402,0 0,25.326 9.668,0 0,-58.021 -9.668,0 0,23.946 -25.402,0 0,-23.946 -9.673,0 L 0,0 Z"
         style="fill:#ffffff;fill-opacity:1;fill-rule:nonzero;stroke:none"
         id="path14"
         inkscape:connector-curvature="0" /></g><path
       d="m 206.122,104.011 9.21,0 0,-36.837 -9.21,0 0,36.837 z"
       style="fill:#ffffff;fill-opacity:1;fill-rule:nonzero;stroke:none"
       id="path16"
       inkscape:connector-curvature="0" /><path
       d="m 226.08,125.195 9.205,0 0,-58.021 -9.205,0 0,58.021 z"
       style="fill:#ffffff;fill-opacity:1;fill-rule:nonzero;stroke:none"
       id="path18"
       inkscape:connector-curvature="0" /><path
       d="m 246.034,125.195 9.21,0 0,-58.021 -9.21,0 0,58.021 z"
       style="fill:#ffffff;fill-opacity:1;fill-rule:nonzero;stroke:none"
       id="path20"
       inkscape:connector-curvature="0" /><g
       id="g22"
       style="fill:#ffffff"><g
         id="g24"
         clip-path="url(#clipPath26)"
         style="fill:#ffffff"><g
           id="g30"
           transform="translate(285.485,93.8058)"
           style="fill:#ffffff"><path
             d="m 0,0 c -1.767,2.458 -4.071,3.762 -7.215,3.762 -2.456,0 -5.369,-1.152 -5.369,-3.916 0,-6.6 19.875,-1.228 19.875,-15.58 0,-8.746 -8.367,-11.815 -15.891,-11.815 -5.668,0 -10.587,1.449 -14.349,5.679 l 6.14,5.749 c 2.377,-2.605 4.832,-4.529 8.753,-4.529 2.682,0 6.14,1.309 6.14,4.23 0,7.593 -19.881,1.615 -19.881,15.653 0,8.212 7.365,11.901 14.815,11.901 4.906,0 10.131,-1.542 13.124,-5.61 L 0,0 Z"
             style="fill:#ffffff;fill-opacity:1;fill-rule:nonzero;stroke:none"
             id="path32"
             inkscape:connector-curvature="0" /></g><g
           id="g34"
           transform="translate(435.3824,74.5419)"
           style="fill:#ffffff"><path
             d="M 0,0 C 6.754,0 10.82,5.298 10.82,11.05 10.82,16.807 6.754,22.105 0,22.105 -6.757,22.105 -10.82,16.807 -10.82,11.05 -10.82,5.298 -6.757,0 0,0 m 0,30.394 c 11.131,0 20.032,-7.752 20.032,-19.344 0,-11.587 -8.901,-19.338 -20.032,-19.338 -11.131,0 -20.032,7.751 -20.032,19.338 0,11.592 8.901,19.344 20.032,19.344 m -44.897,-0.927 9.21,0 0,-5.825 0.156,0 c 1.988,4.218 6.061,6.752 10.901,6.752 1.15,0 2.223,-0.228 3.294,-0.539 l 0,-8.901 c -1.529,0.379 -2.992,0.691 -4.448,0.691 -8.678,0 -9.903,-7.296 -9.903,-9.286 l 0,-19.726 -9.21,0 0,36.834 z M -70.463,0 c 6.756,0 10.83,5.298 10.83,11.05 0,5.757 -4.074,11.055 -10.83,11.055 -6.745,0 -10.82,-5.298 -10.82,-11.055 0,-5.752 4.075,-11.05 10.82,-11.05 m 0,30.394 c 11.138,0 20.032,-7.752 20.032,-19.344 0,-11.587 -8.894,-19.338 -20.032,-19.338 -11.117,0 -20.02,7.751 -20.02,19.338 0,11.592 8.903,19.344 20.02,19.344 m -45.28,-8.289 c -6.751,0 -10.825,-5.298 -10.825,-11.055 0,-5.752 4.074,-11.05 10.825,-11.05 6.757,0 10.823,5.298 10.823,11.05 0,5.757 -4.066,11.055 -10.823,11.055 m -19.723,28.549 9.205,0 0,-25.865 0.235,0 c 1.919,2.382 5.602,5.605 12.511,5.605 10.516,0 17.805,-8.443 17.805,-19.344 0,-10.896 -6.831,-19.338 -18.187,-19.338 -5.144,0 -9.98,1.997 -12.671,6.455 l -0.151,0 0,-5.534 -8.747,0 0,58.021 z"
             style="fill:#ffffff;fill-opacity:1;fill-rule:nonzero;stroke:none"
             id="path36"
             inkscape:connector-curvature="0" /></g><g
           id="g38"
           transform="translate(210.7936,114.1044)"
           style="fill:#ffffff"><path
             d="m 0,0 c -3.198,0 -5.796,2.49 -5.796,5.548 0,3.056 2.598,5.541 5.796,5.541 3.318,0 5.916,-2.431 5.916,-5.541 C 5.916,2.441 3.318,0 0,0"
             style="fill:#ffffff;fill-opacity:1;fill-rule:nonzero;stroke:none"
             id="path40"
             inkscape:connector-curvature="0" /></g><g
           id="g42"
           transform="translate(108.1378,144.4901)"
           style="fill:#ffffff"><path
             d="m 0,0 0,-86.29 -16.817,0 c -1.487,0.025 -2.691,1.225 -2.691,2.715 l 0,22.226 c 0,1.478 -1.179,2.662 -2.639,2.708 l -21.971,0 0,-47.154 0,-0.091 c 3.968,-0.853 8.085,-1.326 12.308,-1.326 32.214,0 58.329,26.115 58.329,58.332 C 26.519,-28.406 15.962,-10.408 0,0"
             style="fill:#ffffff;fill-opacity:1;fill-rule:nonzero;stroke:none"
             id="path44"
             inkscape:connector-curvature="0" /></g><g
           id="g46"
           transform="translate(76.3272,153.9371)"
           style="fill:#ffffff"><path
             d="m 0,0 c -32.212,0 -58.327,-26.117 -58.327,-58.33 0,-20.471 10.55,-38.471 26.509,-48.877 l 0,86.28 16.849,0 c 1.483,-0.034 2.664,-1.225 2.664,-2.71 l 0,-22.211 c 0,-1.507 1.225,-2.728 2.728,-2.728 l 21.88,0 0,40.714 0,6.45 0,0.089 C 8.332,-0.473 4.223,0 0,0"
             style="fill:#ffffff;fill-opacity:1;fill-rule:nonzero;stroke:none"
             id="path48"
             inkscape:connector-curvature="0" /></g><g
           id="g50"
           transform="translate(262.312,39.3105)"
           style="fill:#ffffff"><path
             d="M 0,0 1.008,0 C 3.931,0 5.51,0.608 5.51,3.744 5.51,6.848 3.629,7.296 0.873,7.296 L 0,7.296 0,0 Z m 0,-12.927 -4.939,0 0,24.127 6.719,0 c 5.309,0 8.77,-2.016 8.77,-7.488 0,-5.119 -2.923,-7.615 -8.098,-7.615 l -2.452,0 0,-9.024 z"
             style="fill:#ffffff;fill-opacity:1;fill-rule:nonzero;stroke:none"
             id="path52"
             inkscape:connector-curvature="0" /></g><g
           id="g54"
           transform="translate(279.5825,42.0947)"
           style="fill:#ffffff"><path
             d="m 0,0 0,-8.512 c 0,-1.792 0.303,-3.935 2.688,-3.935 2.385,0 2.688,2.143 2.688,3.935 l 0,8.512 4.704,0 0,-9.247 c 0,-4.576 -2.486,-6.976 -7.392,-6.976 -4.906,0 -7.392,2.4 -7.392,6.976 L -4.704,0 0,0 Z"
             style="fill:#ffffff;fill-opacity:1;fill-rule:nonzero;stroke:none"
             id="path56"
             inkscape:connector-curvature="0" /></g><g
           id="g58"
           transform="translate(304.9839,34.2549)"
           style="fill:#ffffff"><path
             d="m 0,0 c 0,2.112 -1.479,4.384 -3.897,4.384 -2.42,0 -3.898,-2.272 -3.898,-4.384 0,-2.111 1.478,-4.415 3.898,-4.415 C -1.479,-4.415 0,-2.111 0,0 m -12.029,19.263 4.704,0 0,-12.864 c 1.075,1.217 2.822,1.953 4.569,1.953 4.671,0 7.527,-4.16 7.527,-8.288 0,-4.288 -2.755,-8.447 -7.627,-8.447 -1.68,0 -3.461,0.704 -4.402,1.984 l -0.067,0 0,-1.472 -4.704,0 0,27.134 z"
             style="fill:#ffffff;fill-opacity:1;fill-rule:nonzero;stroke:none"
             id="path60"
             inkscape:connector-curvature="0" /></g><path
           d="m 316.642,26.384 -4.704,0 0,27.134 4.704,0 0,-27.134 z"
           style="fill:#ffffff;fill-opacity:1;fill-rule:nonzero;stroke:none"
           id="path62"
           inkscape:connector-curvature="0" /><path
           d="m 324.908,26.384 -4.704,0 0,15.711 4.704,0 0,-15.711 z m 0.436,22.302 c 0,-1.472 -1.243,-2.656 -2.788,-2.656 -1.546,0 -2.789,1.184 -2.789,2.656 0,1.44 1.243,2.656 2.789,2.656 1.545,0 2.788,-1.216 2.788,-2.656"
           style="fill:#ffffff;fill-opacity:1;fill-rule:nonzero;stroke:none"
           id="path64"
           inkscape:connector-curvature="0" /><g
           id="g66"
           transform="translate(339.6909,37.2949)"
           style="fill:#ffffff"><path
             d="m 0,0 c -1.008,0.96 -2.016,1.536 -3.461,1.536 -2.654,0 -4.166,-2.368 -4.166,-4.672 0,-2.464 1.647,-4.511 4.334,-4.511 1.277,0 2.453,0.608 3.293,1.503 l 0,-4.319 c -1.276,-0.672 -2.621,-0.96 -4.065,-0.96 -4.873,0 -8.333,3.808 -8.333,8.319 0,4.672 3.595,8.416 8.568,8.416 1.31,0 2.687,-0.32 3.83,-0.993 L 0,0 Z"
             style="fill:#ffffff;fill-opacity:1;fill-rule:nonzero;stroke:none"
             id="path68"
             inkscape:connector-curvature="0" /></g><g
           id="g70"
           transform="translate(357.3979,30.4795)"
           style="fill:#ffffff"><path
             d="m 0,0 6.988,0 0,-4.096 -11.927,0 0,24.127 4.939,0 L 0,0 Z"
             style="fill:#ffffff;fill-opacity:1;fill-rule:nonzero;stroke:none"
             id="path72"
             inkscape:connector-curvature="0" /></g><path
           d="m 370.77,26.384 -4.704,0 0,15.711 4.704,0 0,-15.711 z m 0.437,22.302 c 0,-1.472 -1.244,-2.656 -2.789,-2.656 -1.545,0 -2.789,1.184 -2.789,2.656 0,1.44 1.244,2.656 2.789,2.656 1.545,0 2.789,-1.216 2.789,-2.656"
           style="fill:#ffffff;fill-opacity:1;fill-rule:nonzero;stroke:none"
           id="path74"
           inkscape:connector-curvature="0" /><g
           id="g76"
           transform="translate(386.3608,34.2549)"
           style="fill:#ffffff"><path
             d="m 0,0 c 0,2.112 -1.479,4.384 -3.897,4.384 -2.42,0 -3.898,-2.272 -3.898,-4.384 0,-2.111 1.478,-4.415 3.898,-4.415 C -1.479,-4.415 0,-2.111 0,0 m -12.029,19.263 4.704,0 0,-12.864 c 1.075,1.217 2.822,1.953 4.569,1.953 4.671,0 7.527,-4.16 7.527,-8.288 0,-4.288 -2.755,-8.447 -7.627,-8.447 -1.68,0 -3.461,0.704 -4.402,1.984 l -0.067,0 0,-1.472 -4.704,0 0,27.134 z"
             style="fill:#ffffff;fill-opacity:1;fill-rule:nonzero;stroke:none"
             id="path78"
             inkscape:connector-curvature="0" /></g><g
           id="g80"
           transform="translate(398.019,40.4629)"
           style="fill:#ffffff"><path
             d="m 0,0 0.067,0 c 0.941,1.376 2.352,2.144 4.1,2.144 0.672,0 1.344,-0.161 1.948,-0.384 L 5.544,-2.4 C 4.973,-2.016 4.301,-1.824 3.596,-1.824 0.336,-1.824 0,-4.576 0,-7.008 l 0,-7.071 -4.704,0 0,15.711 L 0,1.632 0,0 Z"
             style="fill:#ffffff;fill-opacity:1;fill-rule:nonzero;stroke:none"
             id="path82"
             inkscape:connector-curvature="0" /></g><g
           id="g84"
           transform="translate(417.0698,34.2549)"
           style="fill:#ffffff"><path
             d="M 0,0 C 0,2.112 -1.512,4.384 -3.931,4.384 -6.35,4.384 -7.828,2.112 -7.828,0 c 0,-2.111 1.478,-4.415 3.897,-4.415 C -1.512,-4.415 0,-2.111 0,0 m 4.167,-7.871 -4.637,0 0,1.439 -0.067,0 c -1.008,-1.247 -2.755,-1.951 -4.469,-1.951 -4.839,0 -7.594,4.192 -7.594,8.447 0,4.16 2.789,8.288 7.527,8.288 1.714,0 3.461,-0.705 4.603,-1.984 l 0,1.472 4.637,0 0,-15.711 z"
             style="fill:#ffffff;fill-opacity:1;fill-rule:nonzero;stroke:none"
             id="path86"
             inkscape:connector-curvature="0" /></g><g
           id="g88"
           transform="translate(429.3335,40.4629)"
           style="fill:#ffffff"><path
             d="m 0,0 0.067,0 c 0.941,1.376 2.352,2.144 4.1,2.144 0.672,0 1.344,-0.161 1.948,-0.384 L 5.544,-2.4 C 4.973,-2.016 4.301,-1.824 3.596,-1.824 0.336,-1.824 0,-4.576 0,-7.008 l 0,-7.071 -4.704,0 0,15.711 L 0,1.632 0,0 Z"
             style="fill:#ffffff;fill-opacity:1;fill-rule:nonzero;stroke:none"
             id="path90"
             inkscape:connector-curvature="0" /></g><g
           id="g92"
           transform="translate(436.686,42.0947)"
           style="fill:#ffffff"><path
             d="M 0,0 5.342,0 9.273,-8.928 13.507,0 18.748,0 6.753,-24.095 l -5.174,0 5.443,10.783 L 0,0 Z"
             style="fill:#ffffff;fill-opacity:1;fill-rule:nonzero;stroke:none"
             id="path94"
             inkscape:connector-curvature="0" /></g></g></g></g></svg>